<svg id="Layer_1" data-name="Layer 1" xmlns="http://www.w3.org/2000/svg" viewBox="0 0 1000 316.12"><defs><style>.cls-1{fill:#afe9df;}.cls-2{fill:#085cf0;}</style></defs><path class="cls-1" d="M132.52,51.88H82.69V187.42H49.16V51.88H0V24.73H132.52Z"/><path class="cls-1" d="M250.18,116.91H185.82v43.58h75.53v26.93H152.29V24.73H261.13V51.88H185.82V90.65h64.36Z"/><path class="cls-1" d="M386.72,153.9H327.94l-11.17,33.52H281.12L341.69,24.73h31.06l60.9,162.69H398ZM337,126.75h40.68l-20.45-60.9Z"/><path class="cls-1" d="M497.22,24.73l41.79,118,41.57-118h44V187.42H591V143l3.35-76.77L550.41,187.42h-23L483.59,66.29,486.94,143v44.47H453.42V24.73Z"/><path class="cls-1" d="M234.28,248.93,248,283.11l13.69-34.18h7.17v41.89h-5.53V274.51l.52-17.61-13.75,33.92h-4.23L232.12,257l.55,17.53v16.31h-5.53V248.93Z"/><path class="cls-1" d="M276.35,275a18.36,18.36,0,0,1,1.8-8.23,13.36,13.36,0,0,1,5-5.64,13.59,13.59,0,0,1,7.33-2,13.13,13.13,0,0,1,10.28,4.4q3.93,4.41,3.93,11.71v.38a18.58,18.58,0,0,1-1.74,8.16,13.22,13.22,0,0,1-5,5.62,13.83,13.83,0,0,1-7.44,2A13.06,13.06,0,0,1,280.28,287q-3.93-4.39-3.93-11.65Zm5.35.63a13.32,13.32,0,0,0,2.4,8.31,8.14,8.14,0,0,0,12.88,0q2.38-3.18,2.39-8.9a13.32,13.32,0,0,0-2.43-8.31,7.74,7.74,0,0,0-6.46-3.18,7.65,7.65,0,0,0-6.36,3.14Q281.71,269.76,281.7,275.6Z"/><path class="cls-1" d="M326.42,264.46a16.5,16.5,0,0,0-2.62-.2q-5.24,0-7.11,4.46v22.1h-5.32V259.69h5.18l.08,3.59a8.3,8.3,0,0,1,7.43-4.17,5.61,5.61,0,0,1,2.36.4Z"/><path class="cls-1" d="M343.68,291.4a13.61,13.61,0,0,1-10.3-4.16q-4-4.15-4-11.12v-1a18.64,18.64,0,0,1,1.77-8.27,13.78,13.78,0,0,1,4.95-5.7,12.44,12.44,0,0,1,6.89-2.06q6.08,0,9.44,4t3.36,11.45v2.22H334.73a11.07,11.07,0,0,0,2.69,7.44,8.46,8.46,0,0,0,6.55,2.83,9.21,9.21,0,0,0,4.77-1.15,12,12,0,0,0,3.43-3l3.25,2.53Q351.51,291.4,343.68,291.4ZM343,263.48a7.12,7.12,0,0,0-5.41,2.35,11.39,11.39,0,0,0-2.71,6.57h15.6V272a10.11,10.11,0,0,0-2.19-6.29A6.7,6.7,0,0,0,343,263.48Z"/><path class="cls-1" d="M383.79,252.15v7.54h5.81v4.11h-5.81v19.33a4.3,4.3,0,0,0,.78,2.81,3.26,3.26,0,0,0,2.65.94,13.05,13.05,0,0,0,2.53-.35v4.29a15.18,15.18,0,0,1-4.09.58,6.63,6.63,0,0,1-5.38-2.16,9.26,9.26,0,0,1-1.81-6.13V263.8H372.8v-4.11h5.67v-7.54Z"/><path class="cls-1" d="M401.14,263.46a11.32,11.32,0,0,1,9.21-4.35q9.87,0,10,11.14v20.57H415v-20.6a7.15,7.15,0,0,0-1.54-5,6.16,6.16,0,0,0-4.7-1.61,7.7,7.7,0,0,0-4.55,1.38,9.41,9.41,0,0,0-3.05,3.63v22.18h-5.32v-44.2h5.32Z"/><path class="cls-1" d="M447.5,290.82a11,11,0,0,1-.75-3.28,11.88,11.88,0,0,1-8.86,3.86,11,11,0,0,1-7.56-2.61,8.44,8.44,0,0,1-2.95-6.6,8.84,8.84,0,0,1,3.7-7.56q3.71-2.69,10.4-2.69h5.18V269.5a6,6,0,0,0-1.67-4.45,6.71,6.71,0,0,0-4.92-1.65,7.75,7.75,0,0,0-4.77,1.44,4.23,4.23,0,0,0-1.93,3.48H428a7.32,7.32,0,0,1,1.65-4.5,11.29,11.29,0,0,1,4.49-3.44,15,15,0,0,1,6.23-1.27q5.39,0,8.43,2.69a9.74,9.74,0,0,1,3.17,7.41v14.33a17.51,17.51,0,0,0,1.09,6.82v.46Zm-8.84-4.06a9.37,9.37,0,0,0,4.75-1.29,7.8,7.8,0,0,0,3.25-3.37v-6.39h-4.17q-9.78,0-9.78,5.73a4.82,4.82,0,0,0,1.67,3.91A6.4,6.4,0,0,0,438.66,286.76Z"/><path class="cls-1" d="M465.37,259.69l.17,3.91a11.36,11.36,0,0,1,9.32-4.49q9.87,0,10,11.14v20.57h-5.33v-20.6a7.15,7.15,0,0,0-1.53-5,6.2,6.2,0,0,0-4.71-1.61A7.7,7.7,0,0,0,468.7,265a9.41,9.41,0,0,0-3.05,3.63v22.18h-5.32V259.69Z"/><path class="cls-1" d="M539.09,277.53q-.78,6.64-4.91,10.25t-11,3.62a14.78,14.78,0,0,1-11.9-5.33q-4.47-5.32-4.47-14.24v-4a23.87,23.87,0,0,1,2.09-10.27,15.6,15.6,0,0,1,5.91-6.81,16.47,16.47,0,0,1,8.86-2.37q6.67,0,10.71,3.73t4.69,10.31h-5.56q-.72-5-3.12-7.27a9.44,9.44,0,0,0-6.72-2.25,9.89,9.89,0,0,0-8.3,3.91q-3,3.93-3,11.15V272q0,6.83,2.85,10.86a9.23,9.23,0,0,0,8,4q4.6,0,7.07-2.09t3.26-7.26Z"/><path class="cls-1" d="M562,273.87h-9.84v16.95H546.6V248.93h13.87c4.71,0,8.35,1.07,10.89,3.22s3.81,5.27,3.81,9.38a11.29,11.29,0,0,1-2.12,6.82,12.61,12.61,0,0,1-5.88,4.34L577,290.47v.35h-5.93Zm-9.84-4.52h8.49a9.57,9.57,0,0,0,6.54-2.13,7.18,7.18,0,0,0,2.44-5.71,7.6,7.6,0,0,0-2.32-6q-2.31-2.09-6.69-2.11h-8.46Z"/><path class="cls-1" d="M590.05,248.93l13.69,34.18,13.7-34.18h7.16v41.89h-5.52V274.51l.52-17.61-13.76,33.92h-4.23L587.89,257l.54,17.53v16.31h-5.52V248.93Z"/><path class="cls-2" d="M942,196.31l-16.71,96.08a158.3,158.3,0,0,0,70.07-96.08Z"/><path class="cls-2" d="M750.75,142.38q23.14-21.67,30.71-35.22t5.67-26.48q-3-18-20.81-18.49A29.74,29.74,0,0,0,743,72q-9.39,10-11.43,26.34l-36,.12a158.67,158.67,0,0,0-6,101.46Z"/><path class="cls-2" d="M947.93,162.4h52c0-1.44.06-2.89.06-4.34a157.33,157.33,0,0,0-34.25-98.25Z"/><polygon class="cls-2" points="862.36 162.11 906.9 162.4 921.3 87.02 917.52 92.25 862.36 162.11"/><path class="cls-2" d="M900.93,196.31H816.81l2.91-28.67L930.15,26.89A158.09,158.09,0,0,0,748,31a85,85,0,0,1,20.82-2.38q29.54.59,46,16.59t14.55,42.64q-2.33,30-35.37,62.57l-21,19.94-43.37,39,87.61.3-5.39,33.9H709a158.32,158.32,0,0,0,172,67.75Z"/></svg>