<svg width="55" height="54" viewBox="0 0 55 54" fill="none" xmlns="http://www.w3.org/2000/svg">
<path d="M32.5625 11.2031L28.7188 34H24.3281L27.375 16.4844L21.8438 18.1875L22.4844 14.4688L32 11.2031H32.5625Z" fill="#D4AF37"/>
<path d="M22.6203 43.9856C24.5031 45.7343 24.1734 47.1979 24.046 47.3331C23.8998 47.4897 22.4852 47.9001 20.6051 46.1497C18.7251 44.3993 17.2379 40.9936 17.2379 40.9936C17.2379 40.9936 20.7403 42.2347 22.6203 43.9856Z" fill="#D4AF37"/>
<path d="M20.3978 50.4839C22.9195 49.9944 23.4151 48.5803 23.3799 48.3962C23.3387 48.1858 22.3559 47.0886 19.8341 47.5787C17.3124 48.0688 14.2479 50.1691 14.2479 50.1691C14.2479 50.1691 17.8761 50.974 20.3978 50.4839Z" fill="#D4AF37"/>
<path d="M17.0121 41.8936C18.157 44.04 17.4126 45.2482 17.2582 45.3306C17.0791 45.4256 15.6858 45.3575 14.5409 43.211C13.3959 41.0645 13.1125 37.5566 13.1125 37.5566C13.1125 37.5566 15.8671 39.746 17.0121 41.8936Z" fill="#D4AF37"/>
<path d="M13.0206 47.0293C15.4297 47.3672 16.3087 46.2536 16.3329 46.08C16.3614 45.8789 15.8186 44.5966 13.409 44.256C10.9994 43.9154 7.60849 44.8554 7.60849 44.8554C7.60849 44.8554 10.6115 46.6915 13.0206 47.0293Z" fill="#D4AF37"/>
<path d="M12.4811 38.7021C12.9695 40.8925 12.0097 41.7837 11.8526 41.8188C11.6696 41.8595 10.4478 41.4551 9.9588 39.2647C9.46983 37.0742 10.0824 33.885 10.0824 33.885C10.0824 33.885 11.9921 36.5084 12.4811 38.7021Z" fill="#D4AF37"/>
<path d="M7.66624 42.2819C9.72537 43.1763 10.7813 42.4028 10.8456 42.2545C10.9203 42.083 10.7544 40.8063 8.69581 39.9118C6.63723 39.0174 3.38976 39.0163 3.38976 39.0163C3.38976 39.0163 5.60711 41.3881 7.66624 42.2819Z" fill="#D4AF37"/>
<path d="M9.11329 34.6481C9.14955 36.7122 8.12053 37.3401 7.97219 37.3401C7.80023 37.3401 6.77396 36.7534 6.73715 34.6893C6.70035 32.6252 7.84089 29.8651 7.84089 29.8651C7.84089 29.8651 9.07703 32.584 9.11329 34.6481Z" fill="#D4AF37"/>
<path d="M4.11442 36.9885C5.8049 38.1741 6.8993 37.672 6.98445 37.55C7.08334 37.4093 7.16905 36.2314 5.47911 35.0431C3.78917 33.8548 0.864197 33.257 0.864197 33.257C0.864197 33.257 2.42393 35.8029 4.11442 36.9885Z" fill="#D4AF37"/>
<path d="M7.002 30.7435C6.46634 32.6038 5.37249 32.8785 5.23899 32.8395C5.08461 32.7944 4.32809 31.9841 4.8632 30.1265C5.39832 28.269 7.17945 26.1121 7.17945 26.1121C7.17945 26.1121 7.53766 28.8855 7.002 30.7435Z" fill="#D4AF37"/>
<path d="M1.88332 31.4622C3.06947 32.9884 4.18749 32.8406 4.29737 32.7549C4.42428 32.656 4.82643 31.6226 3.63809 30.0964C2.44975 28.5702 0 27.2269 0 27.2269C0 27.2269 0.696083 29.9354 1.88332 31.4622Z" fill="#D4AF37"/>
<path d="M6.22467 26.3237C5.41321 28.0037 4.32816 28.0894 4.20784 28.0312C4.06774 27.9631 3.47989 27.0698 4.2908 25.3897C5.10171 23.7097 7.14765 21.9472 7.14765 21.9472C7.14765 21.9472 7.03612 24.6436 6.22467 26.3237Z" fill="#D4AF37"/>
<path d="M1.23935 26.1759C2.11839 27.8202 3.20674 27.8608 3.32705 27.7977C3.46385 27.724 4.01435 26.8088 3.13367 25.1606C2.25299 23.5124 0.136169 21.8417 0.136169 21.8417C0.136169 21.8417 0.358125 24.531 1.23935 26.1759Z" fill="#D4AF37"/>
<path d="M5.86198 22.1368C4.87856 23.4647 3.91987 23.3603 3.82427 23.2906C3.71439 23.2082 3.3496 22.3335 4.33246 21.0051C5.31533 19.6767 7.38545 18.4779 7.38545 18.4779C7.38545 18.4779 6.84485 20.8079 5.86198 22.1368Z" fill="#D4AF37"/>
<path d="M1.54661 21.1852C2.04107 22.762 2.98163 22.9768 3.09535 22.9433C3.22666 22.9015 3.85682 22.1939 3.36181 20.6171C2.86681 19.0404 1.30158 17.2328 1.30158 17.2328C1.30158 17.2328 1.05161 19.6084 1.54661 21.1852Z" fill="#D4AF37"/>
<path d="M6.60434 18.0449C5.53742 19.1355 4.67377 18.9185 4.5952 18.8421C4.50455 18.7525 4.28205 17.9081 5.34897 16.8159C6.4159 15.7237 8.46075 14.893 8.46075 14.893C8.46075 14.893 7.67181 16.9538 6.60434 18.0449Z" fill="#D4AF37"/>
<path d="M2.77836 16.6291C3.03163 18.1339 3.86396 18.4493 3.97274 18.4306C4.09801 18.4092 4.76387 17.8416 4.5106 16.3368C4.25733 14.8321 3.05416 12.9811 3.05416 12.9811C3.05416 12.9811 2.52729 15.1238 2.77836 16.6291Z" fill="#D4AF37"/>
<path d="M7.87176 14.2996C6.7944 15.0688 6.09063 14.749 6.03569 14.6715C5.97196 14.582 5.91152 13.8255 6.98889 13.0585C8.06625 12.2916 9.93804 11.8916 9.93804 11.8916C9.93804 11.8916 8.94913 13.5321 7.87176 14.2996Z" fill="#D4AF37"/>
<path d="M4.82425 12.5059C4.80996 13.8283 5.47144 14.2244 5.56703 14.2255C5.67691 14.2255 6.33234 13.8442 6.34662 12.5224C6.36091 11.2005 5.61812 9.4364 5.61812 9.4364C5.61812 9.4364 4.83798 11.1829 4.82425 12.5059Z" fill="#D4AF37"/>
<path d="M9.41056 11.0615C8.34418 11.6109 7.75413 11.2335 7.71458 11.1571C7.66898 11.0681 7.71458 10.3814 8.77931 9.83365C9.84403 9.2859 11.5763 9.17438 11.5763 9.17438C11.5763 9.17438 10.4769 10.5127 9.41056 11.0615Z" fill="#D4AF37"/>
<path d="M6.90922 9.05622C6.72462 10.2407 7.26688 10.6824 7.35203 10.6956C7.45092 10.711 8.08822 10.4528 8.27282 9.26719C8.45741 8.0816 8.0201 6.40375 8.0201 6.40375C8.0201 6.40375 7.09327 7.87118 6.90922 9.05622Z" fill="#D4AF37"/>
<path d="M11.3796 8.51564C10.3357 8.85847 9.85172 8.43159 9.82755 8.35687C9.79898 8.26952 9.93743 7.6531 10.9846 7.31302C12.0317 6.97294 13.6178 7.11798 13.6178 7.11798C13.6178 7.11798 12.4262 8.17282 11.3796 8.51564Z" fill="#D4AF37"/>
<path d="M9.40063 6.33449C9.06165 7.38218 9.48963 7.86125 9.56545 7.88598C9.6528 7.914 10.2681 7.77225 10.6093 6.72401C10.9505 5.67576 10.7928 4.09021 10.7928 4.09021C10.7928 4.09021 9.73961 5.28569 9.40063 6.33449Z" fill="#D4AF37"/>
<path d="M13.5529 6.2186C12.6091 6.38782 12.2459 5.96204 12.2344 5.89446C12.2207 5.8159 12.4146 5.30166 13.3585 5.1319C14.3023 4.96214 15.6522 5.28079 15.6522 5.28079C15.6522 5.28079 14.4968 6.04884 13.5529 6.2186Z" fill="#D4AF37"/>
<path d="M12.1098 4.09962C11.6917 4.96217 12.0026 5.42695 12.0647 5.45717C12.1367 5.49178 12.6844 5.44399 13.1031 4.58089C13.5217 3.71779 13.5799 2.33221 13.5799 2.33221C13.5799 2.33221 12.5262 3.23652 12.1098 4.09962Z" fill="#D4AF37"/>
<path d="M16.2698 4.12159C15.4655 4.19411 15.1925 3.80954 15.1875 3.75185C15.1815 3.68483 15.3825 3.26784 16.1869 3.19532C16.9912 3.1228 18.1004 3.49089 18.1004 3.49089C18.1004 3.49089 17.0747 4.04962 16.2698 4.12159Z" fill="#D4AF37"/>
<path d="M15.2182 2.2371C14.8028 2.92934 15.0297 3.34249 15.0797 3.3727C15.1297 3.40292 15.6006 3.40731 16.0137 2.71343C16.4269 2.01954 16.5812 0.862518 16.5812 0.862518C16.5812 0.862518 15.6313 1.54377 15.2182 2.2371Z" fill="#D4AF37"/>
<path d="M18.7305 2.7849C18.013 2.68821 17.8514 2.29814 17.858 2.24649C17.8646 2.19485 18.125 1.86192 18.842 1.95916C19.559 2.0564 20.4556 2.59811 20.4556 2.59811C20.4556 2.59811 19.4485 2.88159 18.7305 2.7849Z" fill="#D4AF37"/>
<path d="M18.1849 0.928477C17.6844 1.45095 17.8003 1.85695 17.8377 1.89321C17.8751 1.92947 18.286 2.02727 18.7865 1.50479C19.287 0.982318 19.6507 0 19.6507 0C19.6507 0 18.6854 0.405453 18.1849 0.928477Z" fill="#D4AF37"/>
<path d="M20.0359 0.733472C19.4942 0.996632 19.4672 1.3466 19.4865 1.38615C19.5057 1.42571 19.7974 1.62019 20.3397 1.35703C20.8819 1.09387 21.4495 0.432953 21.4495 0.432953C21.4495 0.432953 20.5781 0.470312 20.0359 0.733472Z" fill="#D4AF37"/>
<path d="M32.3192 43.9856C30.4392 45.7343 30.7661 47.1979 30.8936 47.3331C31.0408 47.4924 32.4544 47.9001 34.3372 46.1497C36.22 44.3993 37.7044 40.9936 37.7044 40.9936C37.7044 40.9936 34.1993 42.2347 32.3192 43.9856Z" fill="#D4AF37"/>
<path d="M34.5415 50.4839C32.0198 49.9944 31.5242 48.5803 31.5594 48.3962C31.6006 48.1858 32.5835 47.0886 35.1052 47.5787C37.6269 48.0688 40.6914 50.1691 40.6914 50.1691C40.6914 50.1691 37.0632 50.974 34.5415 50.4839Z" fill="#D4AF37"/>
<path d="M37.9275 41.8936C36.7826 44.04 37.527 45.2482 37.6814 45.3306C37.8605 45.4256 39.2538 45.3575 40.3987 43.211C41.5437 41.0645 41.8271 37.5566 41.8271 37.5566C41.8271 37.5566 39.0725 39.746 37.9275 41.8936Z" fill="#D4AF37"/>
<path d="M41.9188 47.0293C39.5097 47.3672 38.6307 46.2536 38.6065 46.08C38.5785 45.8789 39.1207 44.5966 41.5304 44.256C43.94 43.9154 47.3309 44.8554 47.3309 44.8554C47.3309 44.8554 44.3279 46.6915 41.9188 47.0293Z" fill="#D4AF37"/>
<path d="M42.4583 38.7021C41.9699 40.8925 42.9297 41.7837 43.0868 41.8188C43.2698 41.8595 44.4916 41.4551 44.9806 39.2647C45.4695 37.0742 44.857 33.885 44.857 33.885C44.857 33.885 42.9473 36.5084 42.4583 38.7021Z" fill="#D4AF37"/>
<path d="M47.2732 42.2819C45.2141 43.1763 44.1582 42.4028 44.0939 42.2545C44.0192 42.083 44.1851 40.8063 46.2437 39.9118C48.3023 39.0174 51.5497 39.0163 51.5497 39.0163C51.5497 39.0163 49.3324 41.3881 47.2732 42.2819Z" fill="#D4AF37"/>
<path d="M45.8261 34.6481C45.7898 36.7122 46.8189 37.3401 46.9672 37.3401C47.1392 37.3401 48.1654 36.7534 48.2022 34.6893C48.239 32.6252 47.0985 29.8651 47.0985 29.8651C47.0985 29.8651 45.8624 32.584 45.8261 34.6481Z" fill="#D4AF37"/>
<path d="M50.8251 36.9885C49.1346 38.1741 48.0402 37.672 47.9551 37.55C47.8562 37.4093 47.7705 36.2314 49.4604 35.0431C51.1503 33.8548 54.0753 33.257 54.0753 33.257C54.0753 33.257 52.5156 35.8029 50.8251 36.9885Z" fill="#D4AF37"/>
<path d="M47.9374 30.7435C48.473 32.6038 49.5669 32.8785 49.7004 32.8395C49.8548 32.7944 50.6113 31.9841 50.0762 30.1265C49.541 28.269 47.7599 26.1121 47.7599 26.1121C47.7599 26.1121 47.4017 28.8855 47.9374 30.7435Z" fill="#D4AF37"/>
<path d="M53.0561 31.4622C51.87 32.9884 50.752 32.8406 50.6421 32.7549C50.5152 32.656 50.113 31.6226 51.3014 30.0964C52.4897 28.5702 54.9394 27.2269 54.9394 27.2269C54.9394 27.2269 54.2434 29.9354 53.0561 31.4622Z" fill="#D4AF37"/>
<path d="M48.7149 26.3237C49.5263 28.0037 50.6114 28.0894 50.7317 28.0312C50.8718 27.9631 51.4596 27.0698 50.6487 25.3897C49.8378 23.7097 47.7919 21.9472 47.7919 21.9472C47.7919 21.9472 47.9034 24.6436 48.7149 26.3237Z" fill="#D4AF37"/>
<path d="M53.7006 26.1759C52.8215 27.8202 51.7326 27.8609 51.6129 27.7977C51.4761 27.7241 50.9256 26.8088 51.8062 25.1606C52.6869 23.5124 54.8021 21.8401 54.8021 21.8401C54.8021 21.8401 54.5812 24.531 53.7006 26.1759Z" fill="#D4AF37"/>
<path d="M49.0775 22.1368C50.0609 23.4647 51.0196 23.3603 51.1152 23.2906C51.225 23.2082 51.5898 22.3335 50.607 21.0051C49.6241 19.6767 47.554 18.4779 47.554 18.4779C47.554 18.4779 48.0946 20.8079 49.0775 22.1368Z" fill="#D4AF37"/>
<path d="M53.3929 21.1852C52.8985 22.762 51.9579 22.9768 51.8442 22.9433C51.7129 22.9015 51.0827 22.1939 51.5777 20.6171C52.0727 19.0404 53.638 17.2328 53.638 17.2328C53.638 17.2328 53.8879 19.6084 53.3929 21.1852Z" fill="#D4AF37"/>
<path d="M48.3353 18.0449C49.4022 19.1355 50.2659 18.9185 50.3445 18.8421C50.4351 18.7525 50.6576 17.9081 49.5907 16.8159C48.5238 15.7237 46.4789 14.893 46.4789 14.893C46.4789 14.893 47.2678 16.9538 48.3353 18.0449Z" fill="#D4AF37"/>
<path d="M52.1612 16.6291C51.9079 18.1339 51.0756 18.4493 50.9674 18.4306C50.8416 18.4092 50.1763 17.8416 50.429 16.3368C50.6817 14.8321 51.8854 12.9811 51.8854 12.9811C51.8854 12.9811 52.415 15.1238 52.1612 16.6291Z" fill="#D4AF37"/>
<path d="M47.0677 14.2996C48.145 15.0688 48.8488 14.749 48.9038 14.6715C48.9675 14.582 49.0279 13.8255 47.9506 13.0585C46.8732 12.2916 45.0014 11.8916 45.0014 11.8916C45.0014 11.8916 45.9903 13.5321 47.0677 14.2996Z" fill="#D4AF37"/>
<path d="M50.1153 12.5059C50.1296 13.8283 49.4681 14.2244 49.3725 14.2255C49.2626 14.2255 48.6072 13.8442 48.5929 12.5224C48.5786 11.2005 49.3214 9.4364 49.3214 9.4364C49.3214 9.4364 50.1016 11.1829 50.1153 12.5059Z" fill="#D4AF37"/>
<path d="M45.5288 11.0615C46.5952 11.6109 47.1853 11.2335 47.2248 11.1571C47.2704 11.0681 47.2248 10.3814 46.1601 9.83365C45.0954 9.2859 43.3631 9.17438 43.3631 9.17438C43.3631 9.17438 44.4625 10.5127 45.5288 11.0615Z" fill="#D4AF37"/>
<path d="M48.0302 9.05622C48.2148 10.2407 47.6726 10.6824 47.5874 10.6956C47.4885 10.711 46.8512 10.4528 46.6666 9.26719C46.482 8.0816 46.9194 6.40375 46.9194 6.40375C46.9194 6.40375 47.8462 7.87118 48.0302 9.05622Z" fill="#D4AF37"/>
<path d="M43.5599 8.51564C44.607 8.85847 45.0877 8.43159 45.1119 8.35687C45.1405 8.26952 45.002 7.6531 43.9549 7.31302C42.9077 6.97294 41.3216 7.11798 41.3216 7.11798C41.3216 7.11798 42.5133 8.17282 43.5599 8.51564Z" fill="#D4AF37"/>
<path d="M45.5387 6.33449C45.8777 7.38218 45.4497 7.86125 45.3739 7.88598C45.2866 7.914 44.6713 7.77225 44.3301 6.72401C43.9889 5.67576 44.1466 4.09021 44.1466 4.09021C44.1466 4.09021 45.1998 5.28569 45.5387 6.33449Z" fill="#D4AF37"/>
<path d="M41.3865 6.2186C42.3304 6.38782 42.6935 5.96204 42.7051 5.89446C42.7188 5.8159 42.5249 5.30166 41.581 5.1319C40.6372 4.96214 39.2873 5.28079 39.2873 5.28079C39.2873 5.28079 40.4427 6.04884 41.3865 6.2186Z" fill="#D4AF37"/>
<path d="M42.8298 4.09962C43.2479 4.96217 42.9369 5.42695 42.8749 5.45717C42.8029 5.49178 42.2551 5.44399 41.8365 4.58089C41.4179 3.71779 41.3596 2.33221 41.3596 2.33221C41.3596 2.33221 42.4134 3.23652 42.8298 4.09962Z" fill="#D4AF37"/>
<path d="M38.6696 4.12159C39.4739 4.19411 39.747 3.80954 39.7519 3.75185C39.758 3.68483 39.5569 3.26784 38.7526 3.19532C37.9483 3.1228 36.8391 3.49089 36.8391 3.49089C36.8391 3.49089 37.8648 4.04962 38.6696 4.12159Z" fill="#D4AF37"/>
<path d="M39.7214 2.23713C40.1367 2.92937 39.9098 3.34252 39.8598 3.37273C39.8098 3.40295 39.339 3.40734 38.9258 2.71346C38.5127 2.01957 38.3589 0.863647 38.3589 0.863647C38.3589 0.863647 39.3082 1.5438 39.7214 2.23713Z" fill="#D4AF37"/>
<path d="M36.2094 2.7849C36.9236 2.68821 37.0884 2.29814 37.0813 2.24649C37.0742 2.19485 36.8143 1.86192 36.0973 1.95916C35.3804 2.0564 34.4838 2.59811 34.4838 2.59811C34.4838 2.59811 35.4908 2.88159 36.2094 2.7849Z" fill="#D4AF37"/>
<path d="M36.7545 0.928477C37.255 1.45095 37.1391 1.85695 37.1018 1.89321C37.0644 1.92947 36.6535 2.02727 36.153 1.50479C35.6525 0.982318 35.2888 0 35.2888 0C35.2888 0 36.254 0.405453 36.7545 0.928477Z" fill="#D4AF37"/>
<path d="M34.9035 0.733472C35.4452 0.996632 35.4721 1.3466 35.4529 1.38615C35.4337 1.42571 35.142 1.62019 34.5997 1.35703C34.0575 1.09387 33.4899 0.432953 33.4899 0.432953C33.4899 0.432953 34.3613 0.470312 34.9035 0.733472Z" fill="#D4AF37"/>
<path d="M23.6393 48.0375C23.6393 48.0375 25.8918 49.1511 27.05 50.4504C28.0158 51.5316 29.0223 52.6546 29.5557 54C29.5557 54 30.2288 53.861 30.5073 53.6056C30.5073 53.6056 27.6999 49.0115 23.825 47.7589C23.825 47.7589 23.5932 47.6891 23.6393 48.0375Z" fill="#D4AF37"/>
<path d="M31.1255 48.0375C31.1255 48.0375 28.873 49.1511 27.7148 50.4504C26.749 51.5316 25.7425 52.6546 25.2091 54C25.2091 54 24.5361 53.861 24.2575 53.6056C24.2575 53.6056 27.0649 49.0115 30.9398 47.7589C30.9398 47.7589 31.1716 47.6891 31.1255 48.0375Z" fill="#D4AF37"/>
</svg>
