<svg width="55" height="54" viewBox="0 0 55 54" fill="none" xmlns="http://www.w3.org/2000/svg">
<path d="M22.6203 43.9856C24.5031 45.7343 24.1734 47.1979 24.046 47.3331C23.8998 47.4896 22.4852 47.9 20.6051 46.1497C18.7251 44.3993 17.2379 40.9936 17.2379 40.9936C17.2379 40.9936 20.7403 42.2347 22.6203 43.9856Z" fill="#9F7A34"/>
<path d="M20.3978 50.4839C22.9195 49.9944 23.4151 48.5803 23.3799 48.3962C23.3387 48.1858 22.3559 47.0886 19.8341 47.5787C17.3124 48.0688 14.2479 50.1691 14.2479 50.1691C14.2479 50.1691 17.8761 50.974 20.3978 50.4839Z" fill="#9F7A34"/>
<path d="M17.0121 41.8936C18.157 44.04 17.4126 45.2482 17.2582 45.3306C17.0791 45.4256 15.6858 45.3575 14.5409 43.211C13.3959 41.0645 13.1125 37.5566 13.1125 37.5566C13.1125 37.5566 15.8671 39.746 17.0121 41.8936Z" fill="#9F7A34"/>
<path d="M13.0206 47.0293C15.4297 47.3672 16.3087 46.2536 16.3329 46.08C16.3614 45.8789 15.8186 44.5966 13.409 44.256C10.9994 43.9154 7.60849 44.8554 7.60849 44.8554C7.60849 44.8554 10.6115 46.6915 13.0206 47.0293Z" fill="#9F7A34"/>
<path d="M12.4811 38.7021C12.9695 40.8925 12.0097 41.7837 11.8526 41.8188C11.6696 41.8595 10.4478 41.4551 9.9588 39.2647C9.46983 37.0742 10.0824 33.885 10.0824 33.885C10.0824 33.885 11.9921 36.5084 12.4811 38.7021Z" fill="#9F7A34"/>
<path d="M7.66624 42.2819C9.72537 43.1763 10.7813 42.4028 10.8456 42.2544C10.9203 42.083 10.7544 40.8062 8.69581 39.9118C6.63723 39.0174 3.38976 39.0163 3.38976 39.0163C3.38976 39.0163 5.60711 41.388 7.66624 42.2819Z" fill="#9F7A34"/>
<path d="M9.11329 34.6481C9.14955 36.7122 8.12053 37.3401 7.97219 37.3401C7.80023 37.3401 6.77396 36.7534 6.73715 34.6893C6.70035 32.6252 7.84089 29.8651 7.84089 29.8651C7.84089 29.8651 9.07703 32.584 9.11329 34.6481Z" fill="#9F7A34"/>
<path d="M4.11442 36.9885C5.8049 38.1741 6.8993 37.672 6.98445 37.55C7.08334 37.4093 7.16905 36.2314 5.47911 35.0431C3.78917 33.8548 0.864197 33.257 0.864197 33.257C0.864197 33.257 2.42393 35.8029 4.11442 36.9885Z" fill="#9F7A34"/>
<path d="M7.002 30.7435C6.46634 32.6038 5.37249 32.8785 5.23899 32.8395C5.08461 32.7944 4.32809 31.9841 4.8632 30.1265C5.39832 28.269 7.17945 26.1121 7.17945 26.1121C7.17945 26.1121 7.53766 28.8855 7.002 30.7435Z" fill="#9F7A34"/>
<path d="M1.88332 31.4621C3.06947 32.9884 4.18749 32.8406 4.29737 32.7549C4.42428 32.656 4.82643 31.6226 3.63809 30.0964C2.44975 28.5701 0 27.2269 0 27.2269C0 27.2269 0.696083 29.9354 1.88332 31.4621Z" fill="#9F7A34"/>
<path d="M6.22467 26.3237C5.41321 28.0037 4.32816 28.0894 4.20784 28.0312C4.06774 27.9631 3.47989 27.0698 4.2908 25.3897C5.10171 23.7097 7.14765 21.9472 7.14765 21.9472C7.14765 21.9472 7.03612 24.6436 6.22467 26.3237Z" fill="#9F7A34"/>
<path d="M1.23935 26.1759C2.11839 27.8202 3.20674 27.8608 3.32705 27.7977C3.46385 27.724 4.01435 26.8088 3.13367 25.1606C2.25299 23.5124 0.136169 21.8417 0.136169 21.8417C0.136169 21.8417 0.358125 24.531 1.23935 26.1759Z" fill="#9F7A34"/>
<path d="M5.86198 22.1368C4.87856 23.4647 3.91987 23.3603 3.82427 23.2905C3.71439 23.2081 3.3496 22.3335 4.33246 21.0051C5.31533 19.6766 7.38545 18.4778 7.38545 18.4778C7.38545 18.4778 6.84485 20.8078 5.86198 22.1368Z" fill="#9F7A34"/>
<path d="M1.54661 21.1852C2.04107 22.762 2.98163 22.9768 3.09535 22.9433C3.22666 22.9015 3.85682 22.1939 3.36181 20.6171C2.86681 19.0404 1.30158 17.2328 1.30158 17.2328C1.30158 17.2328 1.05161 19.6084 1.54661 21.1852Z" fill="#9F7A34"/>
<path d="M6.60434 18.0449C5.53742 19.1355 4.67377 18.9185 4.5952 18.8421C4.50455 18.7526 4.28205 17.9081 5.34897 16.8159C6.4159 15.7238 8.46075 14.8931 8.46075 14.8931C8.46075 14.8931 7.67181 16.9538 6.60434 18.0449Z" fill="#9F7A34"/>
<path d="M2.77836 16.6291C3.03163 18.1339 3.86396 18.4493 3.97274 18.4306C4.09801 18.4092 4.76387 17.8416 4.5106 16.3368C4.25733 14.8321 3.05416 12.9811 3.05416 12.9811C3.05416 12.9811 2.52729 15.1238 2.77836 16.6291Z" fill="#9F7A34"/>
<path d="M7.87176 14.2996C6.7944 15.0688 6.09063 14.749 6.03569 14.6715C5.97196 14.582 5.91152 13.8255 6.98889 13.0585C8.06625 12.2916 9.93804 11.8916 9.93804 11.8916C9.93804 11.8916 8.94913 13.5321 7.87176 14.2996Z" fill="#9F7A34"/>
<path d="M4.82425 12.5059C4.80996 13.8283 5.47144 14.2244 5.56703 14.2255C5.67691 14.2255 6.33234 13.8442 6.34662 12.5224C6.36091 11.2005 5.61812 9.4364 5.61812 9.4364C5.61812 9.4364 4.83798 11.1829 4.82425 12.5059Z" fill="#9F7A34"/>
<path d="M9.41056 11.0615C8.34418 11.6109 7.75413 11.2335 7.71458 11.1571C7.66898 11.0681 7.71458 10.3814 8.77931 9.83365C9.84403 9.2859 11.5763 9.17438 11.5763 9.17438C11.5763 9.17438 10.4769 10.5127 9.41056 11.0615Z" fill="#9F7A34"/>
<path d="M6.90922 9.05622C6.72462 10.2407 7.26688 10.6824 7.35203 10.6956C7.45092 10.711 8.08822 10.4528 8.27282 9.26719C8.45741 8.0816 8.0201 6.40375 8.0201 6.40375C8.0201 6.40375 7.09327 7.87118 6.90922 9.05622Z" fill="#9F7A34"/>
<path d="M11.3796 8.51561C10.3357 8.85844 9.85172 8.43156 9.82755 8.35684C9.79898 8.26949 9.93743 7.65306 10.9846 7.31299C12.0317 6.97291 13.6178 7.11795 13.6178 7.11795C13.6178 7.11795 12.4262 8.17279 11.3796 8.51561Z" fill="#9F7A34"/>
<path d="M9.40063 6.33449C9.06165 7.38218 9.48963 7.86125 9.56545 7.88598C9.6528 7.914 10.2681 7.77225 10.6093 6.72401C10.9505 5.67576 10.7928 4.09021 10.7928 4.09021C10.7928 4.09021 9.73961 5.28569 9.40063 6.33449Z" fill="#9F7A34"/>
<path d="M13.5529 6.2186C12.6091 6.38782 12.2459 5.96204 12.2344 5.89446C12.2207 5.8159 12.4146 5.30166 13.3585 5.1319C14.3023 4.96214 15.6522 5.28079 15.6522 5.28079C15.6522 5.28079 14.4968 6.04884 13.5529 6.2186Z" fill="#9F7A34"/>
<path d="M12.1098 4.09962C11.6917 4.96217 12.0026 5.42695 12.0647 5.45717C12.1367 5.49178 12.6844 5.44399 13.1031 4.58089C13.5217 3.71779 13.5799 2.33221 13.5799 2.33221C13.5799 2.33221 12.5262 3.23652 12.1098 4.09962Z" fill="#9F7A34"/>
<path d="M16.2698 4.12159C15.4655 4.19411 15.1925 3.80954 15.1875 3.75185C15.1815 3.68483 15.3825 3.26784 16.1869 3.19532C16.9912 3.1228 18.1004 3.49089 18.1004 3.49089C18.1004 3.49089 17.0747 4.04962 16.2698 4.12159Z" fill="#9F7A34"/>
<path d="M15.2182 2.23713C14.8028 2.92937 15.0297 3.34252 15.0797 3.37273C15.1297 3.40295 15.6006 3.40734 16.0137 2.71346C16.4269 2.01957 16.5812 0.862549 16.5812 0.862549C16.5812 0.862549 15.6313 1.5438 15.2182 2.23713Z" fill="#9F7A34"/>
<path d="M18.7305 2.7849C18.013 2.68821 17.8514 2.29814 17.858 2.24649C17.8646 2.19485 18.125 1.86192 18.842 1.95916C19.559 2.0564 20.4556 2.59811 20.4556 2.59811C20.4556 2.59811 19.4485 2.88159 18.7305 2.7849Z" fill="#9F7A34"/>
<path d="M18.1849 0.928477C17.6844 1.45095 17.8003 1.85695 17.8377 1.89321C17.8751 1.92947 18.286 2.02727 18.7865 1.50479C19.287 0.982318 19.6507 0 19.6507 0C19.6507 0 18.6854 0.405453 18.1849 0.928477Z" fill="#9F7A34"/>
<path d="M20.0359 0.733441C19.4942 0.996601 19.4672 1.34657 19.4865 1.38612C19.5057 1.42568 19.7974 1.62016 20.3397 1.357C20.8819 1.09384 21.4495 0.432922 21.4495 0.432922C21.4495 0.432922 20.5781 0.470281 20.0359 0.733441Z" fill="#9F7A34"/>
<path d="M32.3192 43.9856C30.4392 45.7343 30.7661 47.1979 30.8936 47.3331C31.0408 47.4924 32.4544 47.9 34.3372 46.1497C36.22 44.3993 37.7044 40.9936 37.7044 40.9936C37.7044 40.9936 34.1993 42.2347 32.3192 43.9856Z" fill="#9F7A34"/>
<path d="M34.5415 50.4839C32.0198 49.9944 31.5242 48.5803 31.5594 48.3962C31.6006 48.1858 32.5835 47.0886 35.1052 47.5787C37.6269 48.0688 40.6914 50.1691 40.6914 50.1691C40.6914 50.1691 37.0632 50.974 34.5415 50.4839Z" fill="#9F7A34"/>
<path d="M37.9275 41.8936C36.7826 44.04 37.527 45.2482 37.6814 45.3306C37.8605 45.4256 39.2538 45.3575 40.3987 43.211C41.5437 41.0645 41.8271 37.5566 41.8271 37.5566C41.8271 37.5566 39.0725 39.746 37.9275 41.8936Z" fill="#9F7A34"/>
<path d="M41.9188 47.0293C39.5097 47.3672 38.6307 46.2536 38.6065 46.08C38.5785 45.8789 39.1207 44.5966 41.5304 44.256C43.94 43.9154 47.3309 44.8554 47.3309 44.8554C47.3309 44.8554 44.3279 46.6915 41.9188 47.0293Z" fill="#9F7A34"/>
<path d="M42.4583 38.7021C41.9699 40.8925 42.9297 41.7837 43.0868 41.8188C43.2698 41.8595 44.4916 41.4551 44.9806 39.2647C45.4695 37.0742 44.857 33.885 44.857 33.885C44.857 33.885 42.9473 36.5084 42.4583 38.7021Z" fill="#9F7A34"/>
<path d="M47.2732 42.2819C45.2141 43.1763 44.1582 42.4028 44.0939 42.2544C44.0192 42.083 44.1851 40.8062 46.2437 39.9118C48.3023 39.0174 51.5497 39.0163 51.5497 39.0163C51.5497 39.0163 49.3324 41.388 47.2732 42.2819Z" fill="#9F7A34"/>
<path d="M45.8261 34.6481C45.7898 36.7122 46.8189 37.3401 46.9672 37.3401C47.1392 37.3401 48.1654 36.7534 48.2022 34.6893C48.239 32.6252 47.0985 29.8651 47.0985 29.8651C47.0985 29.8651 45.8624 32.584 45.8261 34.6481Z" fill="#9F7A34"/>
<path d="M50.8251 36.9885C49.1346 38.1741 48.0402 37.672 47.9551 37.55C47.8562 37.4093 47.7705 36.2314 49.4604 35.0431C51.1503 33.8548 54.0753 33.257 54.0753 33.257C54.0753 33.257 52.5156 35.8029 50.8251 36.9885Z" fill="#9F7A34"/>
<path d="M47.9374 30.7435C48.473 32.6038 49.5669 32.8785 49.7004 32.8395C49.8548 32.7944 50.6113 31.9841 50.0762 30.1265C49.541 28.269 47.7599 26.1121 47.7599 26.1121C47.7599 26.1121 47.4017 28.8855 47.9374 30.7435Z" fill="#9F7A34"/>
<path d="M53.0561 31.4621C51.87 32.9884 50.752 32.8406 50.6421 32.7549C50.5152 32.656 50.113 31.6226 51.3014 30.0964C52.4897 28.5701 54.9394 27.2269 54.9394 27.2269C54.9394 27.2269 54.2434 29.9354 53.0561 31.4621Z" fill="#9F7A34"/>
<path d="M48.7149 26.3237C49.5263 28.0037 50.6114 28.0894 50.7317 28.0312C50.8718 27.9631 51.4596 27.0698 50.6487 25.3897C49.8378 23.7097 47.7919 21.9472 47.7919 21.9472C47.7919 21.9472 47.9034 24.6436 48.7149 26.3237Z" fill="#9F7A34"/>
<path d="M53.7006 26.1759C52.8215 27.8202 51.7326 27.8609 51.6129 27.7977C51.4761 27.7241 50.9256 26.8088 51.8062 25.1606C52.6869 23.5124 54.8021 21.8401 54.8021 21.8401C54.8021 21.8401 54.5812 24.531 53.7006 26.1759Z" fill="#9F7A34"/>
<path d="M49.0775 22.1368C50.0609 23.4647 51.0196 23.3603 51.1152 23.2905C51.225 23.2081 51.5898 22.3335 50.607 21.0051C49.6241 19.6766 47.554 18.4778 47.554 18.4778C47.554 18.4778 48.0946 20.8078 49.0775 22.1368Z" fill="#9F7A34"/>
<path d="M53.3929 21.1852C52.8985 22.762 51.9579 22.9768 51.8442 22.9433C51.7129 22.9015 51.0827 22.1939 51.5777 20.6171C52.0727 19.0404 53.638 17.2328 53.638 17.2328C53.638 17.2328 53.8879 19.6084 53.3929 21.1852Z" fill="#9F7A34"/>
<path d="M48.3353 18.0449C49.4022 19.1355 50.2659 18.9185 50.3445 18.8421C50.4351 18.7526 50.6576 17.9081 49.5907 16.8159C48.5238 15.7238 46.4789 14.8931 46.4789 14.8931C46.4789 14.8931 47.2678 16.9538 48.3353 18.0449Z" fill="#9F7A34"/>
<path d="M52.1612 16.6291C51.9079 18.1339 51.0756 18.4493 50.9674 18.4306C50.8416 18.4092 50.1763 17.8416 50.429 16.3368C50.6817 14.8321 51.8854 12.9811 51.8854 12.9811C51.8854 12.9811 52.415 15.1238 52.1612 16.6291Z" fill="#9F7A34"/>
<path d="M47.0677 14.2996C48.145 15.0688 48.8488 14.749 48.9038 14.6715C48.9675 14.582 49.0279 13.8255 47.9506 13.0585C46.8732 12.2916 45.0014 11.8916 45.0014 11.8916C45.0014 11.8916 45.9903 13.5321 47.0677 14.2996Z" fill="#9F7A34"/>
<path d="M50.1153 12.5059C50.1296 13.8283 49.4681 14.2244 49.3725 14.2255C49.2626 14.2255 48.6072 13.8442 48.5929 12.5224C48.5786 11.2005 49.3214 9.4364 49.3214 9.4364C49.3214 9.4364 50.1016 11.1829 50.1153 12.5059Z" fill="#9F7A34"/>
<path d="M45.5288 11.0615C46.5952 11.6109 47.1853 11.2335 47.2248 11.1571C47.2704 11.0681 47.2248 10.3814 46.1601 9.83365C45.0954 9.2859 43.3631 9.17438 43.3631 9.17438C43.3631 9.17438 44.4625 10.5127 45.5288 11.0615Z" fill="#9F7A34"/>
<path d="M48.0302 9.05622C48.2148 10.2407 47.6726 10.6824 47.5874 10.6956C47.4885 10.711 46.8512 10.4528 46.6666 9.26719C46.482 8.0816 46.9194 6.40375 46.9194 6.40375C46.9194 6.40375 47.8462 7.87118 48.0302 9.05622Z" fill="#9F7A34"/>
<path d="M43.5599 8.51561C44.607 8.85844 45.0877 8.43156 45.1119 8.35684C45.1405 8.26949 45.002 7.65306 43.9549 7.31299C42.9077 6.97291 41.3216 7.11795 41.3216 7.11795C41.3216 7.11795 42.5133 8.17279 43.5599 8.51561Z" fill="#9F7A34"/>
<path d="M45.5387 6.33449C45.8777 7.38218 45.4497 7.86125 45.3739 7.88598C45.2866 7.914 44.6713 7.77225 44.3301 6.72401C43.9889 5.67576 44.1466 4.09021 44.1466 4.09021C44.1466 4.09021 45.1998 5.28569 45.5387 6.33449Z" fill="#9F7A34"/>
<path d="M41.3865 6.2186C42.3304 6.38782 42.6935 5.96204 42.7051 5.89446C42.7188 5.8159 42.5249 5.30166 41.581 5.1319C40.6372 4.96214 39.2873 5.28079 39.2873 5.28079C39.2873 5.28079 40.4427 6.04884 41.3865 6.2186Z" fill="#9F7A34"/>
<path d="M42.8298 4.09962C43.2479 4.96217 42.9369 5.42695 42.8749 5.45717C42.8029 5.49178 42.2551 5.44399 41.8365 4.58089C41.4179 3.71779 41.3596 2.33221 41.3596 2.33221C41.3596 2.33221 42.4134 3.23652 42.8298 4.09962Z" fill="#9F7A34"/>
<path d="M38.6696 4.12159C39.4739 4.19411 39.747 3.80954 39.7519 3.75185C39.758 3.68483 39.5569 3.26784 38.7526 3.19532C37.9483 3.1228 36.8391 3.49089 36.8391 3.49089C36.8391 3.49089 37.8648 4.04962 38.6696 4.12159Z" fill="#9F7A34"/>
<path d="M39.7214 2.23713C40.1367 2.92937 39.9098 3.34252 39.8598 3.37273C39.8098 3.40295 39.339 3.40734 38.9258 2.71346C38.5127 2.01957 38.3589 0.863647 38.3589 0.863647C38.3589 0.863647 39.3082 1.5438 39.7214 2.23713Z" fill="#9F7A34"/>
<path d="M36.2094 2.7849C36.9236 2.68821 37.0884 2.29814 37.0813 2.24649C37.0742 2.19485 36.8143 1.86192 36.0973 1.95916C35.3804 2.0564 34.4838 2.59811 34.4838 2.59811C34.4838 2.59811 35.4908 2.88159 36.2094 2.7849Z" fill="#9F7A34"/>
<path d="M36.7545 0.928477C37.255 1.45095 37.1391 1.85695 37.1018 1.89321C37.0644 1.92947 36.6535 2.02727 36.153 1.50479C35.6525 0.982318 35.2888 0 35.2888 0C35.2888 0 36.254 0.405453 36.7545 0.928477Z" fill="#9F7A34"/>
<path d="M34.9035 0.733441C35.4452 0.996601 35.4721 1.34657 35.4529 1.38612C35.4337 1.42568 35.142 1.62016 34.5997 1.357C34.0575 1.09384 33.4899 0.432922 33.4899 0.432922C33.4899 0.432922 34.3613 0.470281 34.9035 0.733441Z" fill="#9F7A34"/>
<path d="M23.6393 48.0375C23.6393 48.0375 25.8918 49.1511 27.05 50.4504C28.0158 51.5316 29.0223 52.6546 29.5557 54.0001C29.5557 54.0001 30.2288 53.8611 30.5073 53.6056C30.5073 53.6056 27.6999 49.0116 23.825 47.7589C23.825 47.7589 23.5932 47.6892 23.6393 48.0375Z" fill="#9F7A34"/>
<path d="M31.1255 48.0375C31.1255 48.0375 28.873 49.1511 27.7148 50.4504C26.749 51.5316 25.7425 52.6546 25.2091 54.0001C25.2091 54.0001 24.5361 53.8611 24.2575 53.6056C24.2575 53.6056 27.0649 49.0116 30.9398 47.7589C30.9398 47.7589 31.1716 47.6892 31.1255 48.0375Z" fill="#9F7A34"/>
<path d="M24.7812 20.6719L26.9375 20.7031C27.6354 20.6823 28.2656 20.5469 28.8281 20.2969C29.401 20.0365 29.8646 19.6562 30.2188 19.1562C30.5729 18.6562 30.7917 18.0521 30.875 17.3438C30.9479 16.7708 30.8958 16.2708 30.7188 15.8438C30.5521 15.4062 30.276 15.0625 29.8906 14.8125C29.5052 14.5625 29.0208 14.4323 28.4375 14.4219C27.8646 14.4115 27.3438 14.5208 26.875 14.75C26.4167 14.9688 26.0312 15.2812 25.7188 15.6875C25.4062 16.0938 25.1979 16.5729 25.0938 17.125L20.6875 17.1562C20.7708 15.8125 21.1979 14.6719 21.9688 13.7344C22.75 12.7969 23.724 12.0885 24.8906 11.6094C26.0573 11.1302 27.2708 10.8958 28.5312 10.9062C29.8229 10.9271 31 11.1823 32.0625 11.6719C33.125 12.151 33.9583 12.8646 34.5625 13.8125C35.1667 14.75 35.4219 15.9115 35.3281 17.2969C35.276 18.2552 35.0104 19.099 34.5312 19.8281C34.0521 20.5469 33.4375 21.1458 32.6875 21.625C31.9479 22.1042 31.1406 22.4688 30.2656 22.7188C29.401 22.9583 28.5365 23.0781 27.6719 23.0781L24.4062 23.0625L24.7812 20.6719ZM24.25 24.0938L24.625 21.7656L27.4219 21.7812C28.3073 21.8021 29.1562 21.9271 29.9688 22.1562C30.7917 22.3854 31.5156 22.7292 32.1406 23.1875C32.776 23.6354 33.2656 24.2188 33.6094 24.9375C33.9531 25.6562 34.099 26.5104 34.0469 27.5C33.974 28.625 33.6823 29.6198 33.1719 30.4844C32.6719 31.349 32.0156 32.0677 31.2031 32.6406C30.401 33.2135 29.5 33.6406 28.5 33.9219C27.5104 34.2031 26.4948 34.3385 25.4531 34.3281C24.4635 34.3073 23.5469 34.1458 22.7031 33.8438C21.8698 33.5312 21.1406 33.0938 20.5156 32.5312C19.8906 31.9688 19.4115 31.2865 19.0781 30.4844C18.7448 29.6823 18.5833 28.7708 18.5938 27.75L22.9531 27.7656C22.9531 28.349 23.0625 28.8646 23.2812 29.3125C23.5 29.7604 23.8177 30.1146 24.2344 30.375C24.6615 30.6354 25.1771 30.7708 25.7812 30.7812C26.4583 30.7917 27.0781 30.6615 27.6406 30.3906C28.2031 30.1198 28.6615 29.7344 29.0156 29.2344C29.3802 28.724 29.6042 28.1302 29.6875 27.4531C29.7812 26.7448 29.724 26.151 29.5156 25.6719C29.3177 25.1823 28.9896 24.8073 28.5312 24.5469C28.0729 24.276 27.5 24.1302 26.8125 24.1094L24.25 24.0938Z" fill="#9F7A34"/>
</svg>
